<?xml version="1.0" encoding="UTF-8" standalone="no"?>
<!-- Uploaded to: SVG Repo, www.svgrepo.com, Generator: SVG Repo Mixer Tools -->

<svg
   width="800px"
   height="800px"
   viewBox="0 0 25 25"
   version="1.1"
   id="svg1"
   sodipodi:docname="Icon_Ban.svg"
   inkscape:version="1.3.2 (091e20e, 2023-11-25, custom)"
   xmlns:inkscape="http://www.inkscape.org/namespaces/inkscape"
   xmlns:sodipodi="http://sodipodi.sourceforge.net/DTD/sodipodi-0.dtd"
   xmlns="http://www.w3.org/2000/svg"
   xmlns:svg="http://www.w3.org/2000/svg"
   xmlns:rdf="http://www.w3.org/1999/02/22-rdf-syntax-ns#"
   xmlns:cc="http://creativecommons.org/ns#"
   xmlns:dc="http://purl.org/dc/elements/1.1/"
   xmlns:sketch="http://www.bohemiancoding.com/sketch/ns">
  <sodipodi:namedview
     id="namedview1"
     pagecolor="#ffffff"
     bordercolor="#000000"
     borderopacity="0.25"
     inkscape:showpageshadow="2"
     inkscape:pageopacity="0.0"
     inkscape:pagecheckerboard="0"
     inkscape:deskcolor="#d1d1d1"
     inkscape:zoom="0.3665625"
     inkscape:cx="-94.117647"
     inkscape:cy="235.97613"
     inkscape:window-width="2560"
     inkscape:window-height="1369"
     inkscape:window-x="-8"
     inkscape:window-y="-8"
     inkscape:window-maximized="1"
     inkscape:current-layer="svg1" />
  <title
     id="title1">cross</title>
  <desc
     id="desc1">Created with Sketch Beta.</desc>
  <defs
     id="defs1" />
  <g
     id="Page-1"
     stroke="none"
     stroke-width="1"
     fill="none"
     fill-rule="evenodd"
     sketch:type="MSPage"
     style="fill:#a40006;fill-opacity:1">
    <g
       id="Icon-Set-Filled"
       sketch:type="MSLayerGroup"
       transform="translate(-469.000000, -1041.000000)"
       fill="#000000"
       style="fill:#a40006;fill-opacity:1">
      <path
         d="M487.148,1053.48 L492.813,1047.82 C494.376,1046.26 494.376,1043.72 492.813,1042.16 C491.248,1040.59 488.712,1040.59 487.148,1042.16 L481.484,1047.82 L475.82,1042.16 C474.257,1040.59 471.721,1040.59 470.156,1042.16 C468.593,1043.72 468.593,1046.26 470.156,1047.82 L475.82,1053.48 L470.156,1059.15 C468.593,1060.71 468.593,1063.25 470.156,1064.81 C471.721,1066.38 474.257,1066.38 475.82,1064.81 L481.484,1059.15 L487.148,1064.81 C488.712,1066.38 491.248,1066.38 492.813,1064.81 C494.376,1063.25 494.376,1060.71 492.813,1059.15 L487.148,1053.48"
         id="cross"
         sketch:type="MSShapeGroup"
         style="fill:#a40006;fill-opacity:1" />
    </g>
  </g>
  <metadata
     id="metadata1">
    <rdf:RDF>
      <cc:Work
         rdf:about="">
        <dc:title>cross</dc:title>
      </cc:Work>
    </rdf:RDF>
  </metadata>
</svg>
