<?xml version="1.0" encoding="UTF-8" standalone="no"?>
<svg
   width="133"
   height="151"
   viewBox="0 0 133 151"
   fill="none"
   version="1.1"
   id="svg6"
   sodipodi:docname="Default_Icon.svg"
   inkscape:version="1.3.2 (091e20e, 2023-11-25, custom)"
   xmlns:inkscape="http://www.inkscape.org/namespaces/inkscape"
   xmlns:sodipodi="http://sodipodi.sourceforge.net/DTD/sodipodi-0.dtd"
   xmlns="http://www.w3.org/2000/svg"
   xmlns:svg="http://www.w3.org/2000/svg">
  <defs
     id="defs6" />
  <sodipodi:namedview
     id="namedview6"
     pagecolor="#ffffff"
     bordercolor="#000000"
     borderopacity="0.25"
     inkscape:showpageshadow="2"
     inkscape:pageopacity="0.0"
     inkscape:pagecheckerboard="0"
     inkscape:deskcolor="#d1d1d1"
     inkscape:zoom="5.75"
     inkscape:cx="15.217391"
     inkscape:cy="82"
     inkscape:window-width="2560"
     inkscape:window-height="1369"
     inkscape:window-x="-8"
     inkscape:window-y="-8"
     inkscape:window-maximized="1"
     inkscape:current-layer="svg6" />
  <path
     id="path6"
     d="m 68.695031,104.37369 c -0.820958,1.94026 -3.569104,1.94026 -4.390063,0 L 56.548885,86.046239 c -0.66545,-1.572458 0.488294,-3.314583 2.195091,-3.314583 h 15.512047 c 1.706798,0 2.860541,1.742125 2.195092,3.314583 z M 84.093316,69.215424 c 1.915353,0.829759 1.915353,3.5471 0,4.37686 L 78.17373,76.156732 C 76.599845,76.838595 74.842856,75.684258 74.842856,73.9683 v -5.128896 c 0,-1.715955 1.756989,-2.870292 3.330874,-2.188429 z m -35.186645,4.37686 c -1.915335,-0.82976 -1.915337,-3.5471 0,-4.37686 l 5.919598,-2.564449 c 1.573885,-0.681862 3.330874,0.472474 3.330874,2.188429 v 5.128898 c 0,1.715956 -1.756989,2.870293 -3.330874,2.188431 z M 66.5,64.24947 c 8.557061,0 15.49391,3.203136 15.49391,7.154385 0,3.951245 -6.936849,7.154383 -15.49391,7.154383 -8.557061,0 -15.493911,-3.203138 -15.493911,-7.154383 0,-3.951248 6.93685,-7.154385 15.493911,-7.154385 z m 10.72658,15.501164 c 0,8.561046 -4.802475,15.501165 -10.72658,15.501165 -5.924106,0 -10.726581,-6.940119 -10.726581,-15.501165 0,-8.561045 4.802475,-15.501164 10.726581,-15.501164 5.924105,0 10.72658,6.940119 10.72658,15.501164 z M 74.842856,53.517892 c 0,4.6098 -3.735199,8.346782 -8.342856,8.346782 -4.607658,0 -8.342857,-3.736982 -8.342857,-8.346782 0,-4.609797 3.735199,-8.346781 8.342857,-8.346781 4.607657,0 8.342856,3.736984 8.342856,8.346781 z"
     style="fill:#d9d9d9;fill-opacity:1;stroke-width:0.594682" />
</svg>
