<?xml version="1.0" encoding="UTF-8" standalone="no"?>
<svg
   width="64"
   height="102"
   viewBox="0 0 64 102"
   fill="none"
   version="1.1"
   id="svg6"
   sodipodi:docname="Default_Icon.svg"
   inkscape:version="1.3.2 (091e20e, 2023-11-25, custom)"
   xmlns:inkscape="http://www.inkscape.org/namespaces/inkscape"
   xmlns:sodipodi="http://sodipodi.sourceforge.net/DTD/sodipodi-0.dtd"
   xmlns="http://www.w3.org/2000/svg"
   xmlns:svg="http://www.w3.org/2000/svg">
  <defs
     id="defs6" />
  <sodipodi:namedview
     id="namedview6"
     pagecolor="#ffffff"
     bordercolor="#000000"
     borderopacity="0.25"
     inkscape:showpageshadow="2"
     inkscape:pageopacity="0.0"
     inkscape:pagecheckerboard="0"
     inkscape:deskcolor="#d1d1d1"
     inkscape:zoom="5.75"
     inkscape:cx="10.695652"
     inkscape:cy="39.217391"
     inkscape:window-width="2560"
     inkscape:window-height="1369"
     inkscape:window-x="-8"
     inkscape:window-y="-8"
     inkscape:window-maximized="1"
     inkscape:current-layer="svg6" />
  <path
     d="M46.0291 14.0357C46.0291 21.7874 39.7481 28.0714 32 28.0714C24.2519 28.0714 17.9709 21.7874 17.9709 14.0357C17.9709 6.284 24.2519 0 32 0C39.7481 0 46.0291 6.284 46.0291 14.0357Z"
     fill="#D9D9D9"
     id="path1" />
  <path
     d="M50.0375 58.1479C50.0375 72.5439 41.9618 84.2142 32 84.2142C22.0382 84.2142 13.9625 72.5439 13.9625 58.1479C13.9625 43.7519 22.0382 32.0816 32 32.0816C41.9618 32.0816 50.0375 43.7519 50.0375 58.1479Z"
     fill="#D9D9D9"
     id="path2" />
  <path
     d="M32 32.0816C46.3893 32.0816 58.0541 37.4679 58.0541 44.1122C58.0541 50.7565 46.3893 56.1428 32 56.1428C17.6107 56.1428 5.9459 50.7565 5.9459 44.1122C5.9459 37.4679 17.6107 32.0816 32 32.0816Z"
     fill="#D9D9D9"
     id="path3" />
  <path
     d="M2.41558 47.7922C-0.805191 46.3969 -0.805194 41.8275 2.41558 40.4322L12.3698 36.1199C15.0164 34.9733 17.9709 36.9144 17.9709 39.7999L17.9709 48.4245C17.9709 51.31 15.0164 53.2511 12.3698 52.1045L2.41558 47.7922Z"
     fill="#D9D9D9"
     id="path4" />
  <path
     d="M61.5844 40.4322C64.8052 41.8275 64.8052 46.3969 61.5844 47.7922L51.6302 52.1045C48.9836 53.2511 46.0291 51.31 46.0291 48.4245V39.7999C46.0291 36.9144 48.9836 34.9733 51.6302 36.1199L61.5844 40.4322Z"
     fill="#D9D9D9"
     id="path5" />
  <path
     d="M35.6911 99.5533C34.3106 102.816 29.6894 102.816 28.3089 99.5533L15.2665 68.7344C14.1475 66.0902 16.0876 63.1607 18.9577 63.1607L45.0423 63.1607C47.9124 63.1607 49.8525 66.0902 48.7335 68.7344L35.6911 99.5533Z"
     fill="#D9D9D9"
     id="path6" />
</svg>
